HIERARCHY
ROOT Hips
{
	OFFSET 0.000000 0.000000 0.000000
	CHANNELS 6 Xposition Yposition Zposition Xrotation Yrotation Zrotation
	JOINT LeftUpLeg_virtual
	{
		OFFSET 0.000000 0.000000 0.000000
		CHANNELS 3 Xrotation Yrotation Zrotation
		JOINT LeftUpLeg
		{
			OFFSET 11.394100 -6.187798 -0.413800
			CHANNELS 3 Xrotation Yrotation Zrotation
			JOINT LeftLeg
			{
				OFFSET 0.430247 -32.302673 3.732800
				CHANNELS 3 Xrotation Yrotation Zrotation
				JOINT LeftFoot
				{
					OFFSET -0.430247 -48.264931 -6.423300
					CHANNELS 3 Xrotation Yrotation Zrotation
					JOINT LeftToeBase
					{
						OFFSET 4.230900 -16.068199 23.438400
						CHANNELS 3 Xrotation Yrotation Zrotation
						JOINT LeftToe_End
						{
							OFFSET 4.510700 0.695400 19.974600
							CHANNELS 3 Xrotation Yrotation Zrotation
							End Site
							{
								OFFSET 0 0 0
							}
						}
					}
				}
			}
		}
	}
	JOINT RightUpLeg_virtual
	{
		OFFSET 0.000000 0.000000 0.000000
		CHANNELS 3 Xrotation Yrotation Zrotation
		JOINT RightUpLeg
		{
			OFFSET -11.333700 -6.187798 -0.413800
			CHANNELS 3 Xrotation Yrotation Zrotation
			JOINT RightLeg
			{
				OFFSET -0.430392 -32.302628 3.733000
				CHANNELS 3 Xrotation Yrotation Zrotation
				JOINT RightFoot
				{
					OFFSET 0.430392 -48.264973 -6.423500
					CHANNELS 3 Xrotation Yrotation Zrotation
					JOINT RightToeBase
					{
						OFFSET -4.230900 -16.068199 23.438400
						CHANNELS 3 Xrotation Yrotation Zrotation
						JOINT RightToe_End
						{
							OFFSET -4.510700 0.695400 19.974600
							CHANNELS 3 Xrotation Yrotation Zrotation
							End Site
							{
								OFFSET 0 0 0
							}
						}
					}
				}
			}
		}
	}
	JOINT Spine_virtual
	{
		OFFSET 0.000000 0.000000 0.000000
		CHANNELS 3 Xrotation Yrotation Zrotation
		JOINT Spine
		{
			OFFSET -0.002400 12.777504 0.315300
			CHANNELS 3 Xrotation Yrotation Zrotation
			JOINT Spine1
			{
				OFFSET -0.002067 5.816869 0.032633
				CHANNELS 3 Xrotation Yrotation Zrotation
				JOINT Spine1_split
				{
					OFFSET -0.002067 5.816869 0.032633
					CHANNELS 3 Xrotation Yrotation Zrotation
					JOINT Spine2
					{
						OFFSET -0.002067 5.816869 0.032633
						CHANNELS 3 Xrotation Yrotation Zrotation
						JOINT Neck_virtual
						{
							OFFSET 0.000000 0.000000 0.000000
							CHANNELS 3 Xrotation Yrotation Zrotation
							JOINT Neck
							{
								OFFSET -0.003700 21.199493 -0.826900
								CHANNELS 3 Xrotation Yrotation Zrotation
								JOINT Head
								{
									OFFSET 0.000000 20.442200 4.834800
									CHANNELS 3 Xrotation Yrotation Zrotation
									JOINT HeadTop_End
									{
										OFFSET 0.000000 34.668396 4.968400
										CHANNELS 3 Xrotation Yrotation Zrotation
										End Site
										{
											OFFSET 0 0 0
										}
									}
								}
							}
						}
						JOINT LeftShoulder_virtual
						{
							OFFSET 0.000000 0.000000 0.000000
							CHANNELS 3 Xrotation Yrotation Zrotation
							JOINT LeftShoulder
							{
								OFFSET 3.288150 8.794197 -1.372250
								CHANNELS 3 Xrotation Yrotation Zrotation
								JOINT LeftShoulder_split
								{
									OFFSET 3.288150 8.794197 -1.372250
									CHANNELS 3 Xrotation Yrotation Zrotation
									JOINT LeftArm
									{
										OFFSET 11.953299 -2.279007 -0.146200
										CHANNELS 3 Xrotation Yrotation Zrotation
										JOINT LeftForeArm
										{
											OFFSET 18.448900 0.000000 0.000000
											CHANNELS 3 Xrotation Yrotation Zrotation
											JOINT LeftHand
											{
												OFFSET 29.527798 0.000000 0.000000
												CHANNELS 3 Xrotation Yrotation Zrotation
												End Site
												{
													OFFSET 0 0 0
												}
											}
										}
									}
								}
							}
						}
						JOINT RightShoulder_virtual
						{
							OFFSET 0.000000 0.000000 0.000000
							CHANNELS 3 Xrotation Yrotation Zrotation
							JOINT RightShoulder
							{
								OFFSET -3.249400 8.794197 -1.372250
								CHANNELS 3 Xrotation Yrotation Zrotation
								JOINT RightShoulder_split
								{
									OFFSET -3.249400 8.794197 -1.372250
									CHANNELS 3 Xrotation Yrotation Zrotation
									JOINT RightArm
									{
										OFFSET -11.953299 -2.279007 -0.146200
										CHANNELS 3 Xrotation Yrotation Zrotation
										JOINT RightForeArm
										{
											OFFSET -18.448900 0.000000 0.000000
											CHANNELS 3 Xrotation Yrotation Zrotation
											JOINT RightHand
											{
												OFFSET -29.527802 0.000000 0.000000
												CHANNELS 3 Xrotation Yrotation Zrotation
												End Site
												{
													OFFSET 0 0 0
												}
											}
										}
									}
								}
							}
						}
					}
				}
			}
		}
	}
}
MOTION
Frames: 4
Frame Time: 0.03333333
-0.472363 99.636528 -0.081436 0.000000 0.000000 0.000000 -9.009948 -2.725130 8.970319 2.981088 13.044157 -8.901787 15.013162 4.930468 -1.815546 -10.618134 -1.610124 2.460910 -1.838513 0.572239 -1.306496 0.000000 0.000000 0.000000 -8.779856 -2.654999 8.790893 -7.726696 -5.339833 -26.717014 23.218152 3.493811 2.156668 -2.173039 -13.818713 8.906414 -5.447999 0.174270 -1.078442 0.000000 0.000000 0.000000 -8.465189 -5.756386 8.174747 2.473489 -1.222728 -6.412986 4.062471 2.187603 -3.120619 2.136385 -1.260673 1.701296 0.000000 0.000000 0.000000 3.683392 1.838619 -3.296416 0.249943 -3.287611 -6.523690 -1.073285 -11.806196 5.884315 0.000000 0.000000 0.000000 4.535902 1.289607 -3.403107 3.527375 -8.140621 -19.251692 -6.293262 4.755199 -6.049567 17.511581 2.498299 -46.415128 1.079188 -46.796652 -5.383662 0.000000 0.000000 0.000000 2.696375 1.966059 -2.076638 6.247974 5.607288 6.270776 -3.076682 4.294053 0.596875 1.066698 -9.040861 68.109656 18.194813 30.086222 0.926787 0.000000 0.000000 0.000000 
-0.699645 100.048836 0.573845 0.000000 0.000000 0.000000 -8.854017 -2.288107 8.933264 2.833216 11.844501 -8.467903 15.258134 5.005453 -1.687719 -10.012011 -1.262254 2.905761 -2.196965 0.584514 -1.419116 0.000000 0.000000 0.000000 -8.782861 -2.161784 8.763456 -6.813486 -6.013081 -26.552074 22.441461 3.150605 2.002850 -1.802038 -13.183205 9.740454 -6.786603 0.173937 -0.984856 0.000000 0.000000 0.000000 -8.636328 -5.125327 7.706841 2.507336 -1.157607 -6.478941 5.029459 2.227938 -2.857894 2.280733 -0.486325 1.836253 0.000000 0.000000 0.000000 4.396272 1.948177 -3.106287 -0.867724 -3.258617 -5.862770 -2.700681 -10.308432 5.434060 0.000000 0.000000 0.000000 5.433110 1.343781 -3.142752 3.577898 -9.374403 -17.596879 -4.014622 1.702787 -3.854474 18.658371 -0.366224 -47.489233 1.286148 -47.459972 -5.034550 0.000000 0.000000 0.000000 3.404801 2.062809 -1.936770 5.846774 5.933921 6.416325 -2.976003 5.397200 0.507298 2.141476 -6.765567 67.179145 18.712090 33.476205 -0.016632 0.000000 0.000000 0.000000 
-0.979436 100.749664 0.902626 0.000000 0.000000 0.000000 -9.018426 -1.846775 8.659169 2.594750 10.903437 -7.980031 15.511573 4.852118 -1.519724 -9.001901 -0.633644 3.417676 -2.977192 0.609809 -1.268691 0.000000 0.000000 0.000000 -8.729740 -1.689417 8.495727 -5.679947 -6.820631 -26.176041 20.700989 2.429409 1.759062 -0.769697 -12.256500 10.140021 -7.427787 0.262223 -1.062206 0.000000 0.000000 0.000000 -8.856616 -4.363025 6.971075 2.836190 -0.840625 -6.407741 6.566629 2.267081 -2.395905 1.929130 0.336970 1.571846 0.000000 0.000000 0.000000 6.009098 2.118891 -2.742639 -3.518664 -2.857089 -5.835319 -5.004688 -8.586135 4.494816 0.000000 0.000000 0.000000 7.032004 1.612971 -2.688583 3.590663 -11.619525 -14.781694 -1.849615 -0.280802 -2.394187 23.572784 -6.230324 -44.974060 -2.032694 -52.856525 -5.890194 0.000000 0.000000 0.000000 5.017676 2.206874 -1.678471 5.405102 6.341769 6.265928 -2.728620 6.011460 0.473537 4.244146 -1.456010 64.899891 20.295940 36.753624 -3.071007 0.000000 0.000000 0.000000 
-1.207370 101.446297 0.922405 0.000000 0.000000 0.000000 -9.365621 -1.551321 8.155328 2.240501 10.555348 -7.578448 15.715772 4.492913 -1.398372 -7.684789 0.212571 3.828202 -3.798728 0.644485 -1.030330 0.000000 0.000000 0.000000 -8.561377 -1.297738 8.017745 -5.276256 -7.269609 -25.692112 19.373751 1.561302 1.505751 1.394804 -11.094257 10.384168 -8.090771 0.355254 -1.342815 0.000000 0.000000 0.000000 -9.280880 -3.594427 6.151467 3.447036 -0.377901 -6.243061 8.422958 2.223926 -1.782770 1.249016 0.198934 1.459357 0.000000 0.000000 0.000000 8.263642 2.214176 -2.247682 -7.148455 -1.905192 -6.348459 -7.873697 -6.671947 3.074964 0.000000 0.000000 0.000000 8.987845 1.933923 -2.113295 3.664513 -14.488923 -11.163893 -0.667697 -0.514568 -3.048588 30.904014 -12.181210 -39.085549 -9.443194 -62.123507 -8.750184 0.000000 0.000000 0.000000 7.242287 2.289398 -1.330788 4.847321 6.957428 6.054438 -2.381910 5.760705 0.359740 7.008663 4.858726 61.378368 22.906609 39.733191 -8.090731 0.000000 0.000000 0.000000 
